<svg aria-hidden="true" focusable="false"  width="504" height="500" viewBox="0 0 504 500" fill="#4d66e5" xmlns="http://www.w3.org/2000/svg">
<path opacity="0.5" fill-rule="evenodd" clip-rule="evenodd" d="M292.179 55.6079C354.081 54.0592 413.429 -23.7949 466.591 7.345C518.177 37.5623 502.509 117.992 499.122 176.826C496.651 219.746 469.781 254.671 450.139 293.102C433.983 324.712 416.447 352.946 394.695 381.145C362.311 423.127 344.368 485.567 292.179 497.878C239.85 510.222 193.055 465.799 146.243 439.754C92.6913 409.96 9.43353 395.43 0.629735 335.669C-8.57485 273.189 85.8064 243.31 108.606 184.273C129.467 130.255 76.1957 49.4989 124.115 15.9128C172.172 -17.77 233.129 57.0851 292.179 55.6079Z" fill="#4D66E5"/>
</svg>
